# xmcd CD Database Entry
#
# Track frame offsets:
# 150
# 18845
# 35260
# 54980
# 70695
# 88820
# 104680
# 124370
# 138325
# 155970
# 171870
# 187680
# 203720
#
# Disc length: 2946 seconds
#
# Revision: 1
# Processed by: cddbd v1.5PL3 Copyright (c) Steve Scherf et al.
# Submitted via: RSJCDWriter_freedb_lib_OS/2 1.02
#
DISCID=af0b800d
DTITLE=Ashley Jay - Only When
DYEAR=1900
DGENRE=
TTITLE0=make it hurt
TTITLE1=no man's land
TTITLE2=while you were out
TTITLE3=take me or leave me alone
TTITLE4=white lies and alibis
TTITLE5=one wish
TTITLE6=between hello and goodbye
TTITLE7=love's lookin' back
TTITLE8=only when
TTITLE9=before i love you anymore
TTITLE10=i am so (over you)
TTITLE11=take it easy on me
TTITLE12=could be
EXTD=
EXTT0=
EXTT1=
EXTT2=
EXTT3=
EXTT4=
EXTT5=
EXTT6=
EXTT7=
EXTT8=
EXTT9=
EXTT10=
EXTT11=
EXTT12=
PLAYORDER=
